<?xml version="1.0" ?><svg fill="none" height="24" viewBox="0 0 24 24" width="24" xmlns="http://www.w3.org/2000/svg"><path clip-rule="evenodd" d="M12.3714 5.07152C12.133 4.97616 11.867 4.97616 11.6286 5.07152L1.62861 9.07152C1.24895 9.22339 1 9.5911 1 10C1 10.4089 1.24895 10.7766 1.62861 10.9285L6 12.677V16.656C6 17.9957 7.29147 18.9566 8.5747 18.5716L12 17.544L15.4253 18.5716C16.7085 18.9566 18 17.9957 18 16.656V12.677L22.3714 10.9285C22.751 10.7766 23 10.4089 23 10C23 9.5911 22.751 9.22339 22.3714 9.07152L12.3714 5.07152Z" fill="black" fill-rule="evenodd"/><path clip-rule="evenodd" d="M19 17V11H21V17H19Z" fill="black" fill-rule="evenodd"/></svg>