<?xml version="1.0" ?><svg fill="none" height="24" viewBox="0 0 24 24" width="24" xmlns="http://www.w3.org/2000/svg"><path clip-rule="evenodd" d="M4 1.5C2.61929 1.5 1.5 2.61929 1.5 4V20C1.5 21.3807 2.61929 22.5 4 22.5H12C12.2761 22.5 12.5 22.2761 12.5 22V14.5C12.5 14.2239 12.2761 14 12 14H10V11.5H12C12.2761 11.5 12.5 11.2761 12.5 11V8C12.5 6.34315 13.8431 5 15.5 5H18.5V7.5H17.5C16.3954 7.5 15.5 8.39543 15.5 9.5V11C15.5 11.2761 15.7239 11.5 16 11.5H18.3371L17.6228 14H16C15.7239 14 15.5 14.2239 15.5 14.5V22C15.5 22.2761 15.7239 22.5 16 22.5H20C21.3807 22.5 22.5 21.3807 22.5 20V4C22.5 2.61929 21.3807 1.5 20 1.5H4Z" fill="black" fill-rule="evenodd"/></svg>