<?xml version="1.0" ?><svg viewBox="0 0 100 100" xmlns="http://www.w3.org/2000/svg"><g data-name="Layer 2" id="Layer_2"><path d="M81.6,95.5h-33a4.15,4.15,0,0,1-4.15-4.14V84.94a.5.5,0,0,1,.5-.5h1.26a3,3,0,0,0,3.17-2.75V55.46a3,3,0,0,0-3.17-2.73H45a.5.5,0,0,1-.5-.5V41.57a.51.51,0,0,1,.26-.44.49.49,0,0,1,.51,0L54,46.87V37.74a.5.5,0,0,1,.5-.5h6.87a3,3,0,0,0,3.17-2.75V22.05a.5.5,0,0,1,.5-.5H80.2a.5.5,0,0,1,0,1H65.52V34.49a4,4,0,0,1-4.17,3.75H55V47.8a.51.51,0,0,1-.26.44.49.49,0,0,1-.51,0L45.48,42.5v9.23h.76a4,4,0,0,1,4.17,3.73V81.69a4,4,0,0,1-4.17,3.75h-.76v5.92a3.15,3.15,0,0,0,3.15,3.14h33a3.15,3.15,0,0,0,3.14-3.14V27.68a.5.5,0,1,1,1,0V91.36A4.15,4.15,0,0,1,81.6,95.5Z"/><path d="M85.24,28.18a.5.5,0,0,1-.5-.5v-2a3.15,3.15,0,0,0-3.14-3.14H80.2a.5.5,0,0,1,0-1h1.4a4.15,4.15,0,0,1,4.14,4.14v2A.5.5,0,0,1,85.24,28.18Z"/><path d="M87.76,25.36a.5.5,0,0,1-.5-.5v-2a3.14,3.14,0,0,0-3.14-3.14h-1.4a.5.5,0,0,1-.5-.5.5.5,0,0,1,.5-.5h1.4a4.14,4.14,0,0,1,4.14,4.14v2A.5.5,0,0,1,87.76,25.36Z"/><path d="M85,85.92H45a.5.5,0,0,1-.5-.5.5.5,0,0,1,.5-.5H85a.5.5,0,0,1,.5.5A.5.5,0,0,1,85,85.92Z"/><path d="M65.11,92.92a2.56,2.56,0,1,1,2.56-2.56A2.56,2.56,0,0,1,65.11,92.92Zm0-4.12a1.56,1.56,0,1,0,1.56,1.56A1.56,1.56,0,0,0,65.11,88.8Z"/><path d="M54.48,48.3a.5.5,0,0,1-.27-.08L39,38.24H31.73a4,4,0,0,1-4.17-3.75V8.27a4,4,0,0,1,4.17-3.74H61.35a4,4,0,0,1,4.17,3.74V34.49a4,4,0,0,1-4.17,3.75H55V47.8a.51.51,0,0,1-.26.44A.53.53,0,0,1,54.48,48.3ZM31.73,5.53a3,3,0,0,0-3.17,2.74V34.49a3,3,0,0,0,3.17,2.75h7.41a.5.5,0,0,1,.27.08L54,46.87V37.74a.5.5,0,0,1,.5-.5h6.87a3,3,0,0,0,3.17-2.75V8.27a3,3,0,0,0-3.17-2.74Z"/><path d="M39.37,95.5a.5.5,0,0,1-.27-.08l-15.22-10H16.62a4,4,0,0,1-4.18-3.75V55.46a4,4,0,0,1,4.18-3.73H46.24a4,4,0,0,1,4.17,3.73V81.69a4,4,0,0,1-4.17,3.75H39.87V95a.51.51,0,0,1-.26.44A.53.53,0,0,1,39.37,95.5ZM16.62,52.73a3,3,0,0,0-3.18,2.73V81.69a3,3,0,0,0,3.18,2.75H24a.5.5,0,0,1,.27.08l14.57,9.55V84.94a.5.5,0,0,1,.5-.5h6.87a3,3,0,0,0,3.17-2.75V55.46a3,3,0,0,0-3.17-2.73Z"/><path d="M53.57,32.52a.5.5,0,0,1-.5-.5V26.53c0-2.64-2.64-4.79-5.89-4.79s-5.88,2.15-5.88,4.79V32a.5.5,0,0,1-1,0V26.53c0-3.19,3.09-5.79,6.88-5.79s6.89,2.6,6.89,5.79V32A.51.51,0,0,1,53.57,32.52Z"/><path d="M47.18,18.84a4.95,4.95,0,1,1,5-4.95A5,5,0,0,1,47.18,18.84Zm0-8.9a4,4,0,1,0,4,4A4,4,0,0,0,47.18,9.94Z"/><path d="M53.57,32.52H40.8a.5.5,0,0,1-.5-.5.5.5,0,0,1,.5-.5H53.57a.5.5,0,0,1,.5.5A.51.51,0,0,1,53.57,32.52Z"/><path d="M37.81,80.09a.5.5,0,0,1-.5-.5V74.1c0-2.64-2.64-4.79-5.89-4.79s-5.88,2.15-5.88,4.79v5.49a.5.5,0,0,1-.5.5.5.5,0,0,1-.5-.5V74.1c0-3.19,3.09-5.79,6.88-5.79s6.89,2.6,6.89,5.79v5.49A.5.5,0,0,1,37.81,80.09Z"/><path d="M31.42,66.41a5,5,0,1,1,5-4.95A5,5,0,0,1,31.42,66.41Zm0-8.9a4,4,0,1,0,4,4A4,4,0,0,0,31.42,57.51Z"/><path d="M37.81,80.09H25a.5.5,0,1,1,0-1H37.81a.5.5,0,0,1,0,1Z"/><path d="M24.27,36a.5.5,0,0,1-.5-.5V32a.5.5,0,0,1,.5-.5.5.5,0,0,1,.5.5v3.49A.5.5,0,0,1,24.27,36Z"/><path d="M24.27,28.82a.5.5,0,0,1-.5-.5V8.59a.5.5,0,0,1,.5-.5.5.5,0,0,1,.5.5V28.32A.5.5,0,0,1,24.27,28.82Z"/><path d="M87.76,31.07a.5.5,0,0,1-.5-.5V26.63a.5.5,0,0,1,.5-.5.5.5,0,0,1,.5.5v3.94A.5.5,0,0,1,87.76,31.07Z"/></g></svg>